<svg width="24" height="26" viewBox="0 0 24 26" fill="none" xmlns="http://www.w3.org/2000/svg">
<path d="M7 11.2187C7 11.2187 7.38623 14.8237 8.89064 16.3281C10.395 17.8325 14 18.2187 14 18.2187C14 18.2187 10.395 18.6049 8.89064 20.1093C7.38623 21.6137 7 25.2187 7 25.2187C7 25.2187 6.61377 21.6137 5.10936 20.1093C3.60496 18.6049 0 18.2187 0 18.2187C0 18.2187 3.60496 17.8325 5.10936 16.3281C6.61377 14.8237 7 11.2187 7 11.2187Z" fill="white"/>
<path d="M17 5.27602C17 5.27602 17.3862 8.88097 18.8906 10.3854C20.395 11.8898 24 12.276 24 12.276C24 12.276 20.395 12.6622 18.8906 14.1667C17.3862 15.6711 17 19.276 17 19.276C17 19.276 16.6138 15.6711 15.1094 14.1667C13.605 12.6622 10 12.276 10 12.276C10 12.276 13.605 11.8898 15.1094 10.3854C16.6138 8.88097 17 5.27602 17 5.27602Z" fill="white"/>
<path d="M7 0C7 0 7.38623 3.60496 8.89064 5.10936C10.395 6.61377 14 7 14 7C14 7 10.395 7.38623 8.89064 8.89064C7.38623 10.395 7 14 7 14C7 14 6.61377 10.395 5.10936 8.89064C3.60496 7.38623 0 7 0 7C0 7 3.60496 6.61377 5.10936 5.10936C6.61377 3.60496 7 0 7 0Z" fill="white"/>
</svg>
